<?xml version="1.0" standalone="no"?>
<svg viewBox="0 0 200 200" xmlns="http://www.w3.org/2000/svg">
  <path fill="#A7CFE9" d="M35.2,-60.6C45.6,-54.9,54.1,-45.5,62.4,-34.8C70.7,-24.1,78.7,-12,82.7,2.3C86.7,16.7,86.6,33.3,78.4,44.1C70.1,54.8,53.7,59.7,39.3,65.8C24.9,72,12.4,79.4,-1,81.1C-14.4,82.8,-28.8,78.8,-38.5,70C-48.2,61.1,-53.1,47.3,-61.3,34.8C-69.6,22.3,-81.2,11.2,-81.5,-0.1C-81.7,-11.5,-70.6,-22.9,-60.8,-32.7C-51,-42.5,-42.4,-50.6,-32.5,-56.6C-22.6,-62.6,-11.3,-66.5,0.5,-67.4C12.4,-68.3,24.7,-66.3,35.2,-60.6Z" transform="translate(100 100)" />
</svg>
