<?xml version="1.0" standalone="no"?>
<svg viewBox="0 0 200 200" xmlns="http://www.w3.org/2000/svg">
  <path fill="#FF0066" d="M29.4,-51.3C41,-44.3,55.3,-42.2,61.1,-34.5C67,-26.8,64.5,-13.4,65.9,0.8C67.4,15.1,72.8,30.1,66.8,37.6C60.8,45.1,43.3,45,30.3,49.8C17.3,54.7,8.6,64.6,-1.8,67.7C-12.2,70.8,-24.4,67.2,-36.3,61.6C-48.1,56,-59.5,48.5,-69.3,37.9C-79.1,27.3,-87.1,13.7,-86.7,0.2C-86.3,-13.2,-77.4,-26.4,-67.1,-36C-56.8,-45.6,-45.1,-51.7,-33.7,-58.9C-22.2,-66.1,-11.1,-74.4,-1.1,-72.5C8.9,-70.6,17.8,-58.4,29.4,-51.3Z" transform="translate(100 100)" />
</svg>
