<?xml version="1.0" standalone="no"?>
<svg viewBox="0 0 200 200" xmlns="http://www.w3.org/2000/svg">
  <path fill="#FF0066" d="M39.2,-66C48.9,-54.8,53.5,-40.6,57.9,-27.5C62.3,-14.3,66.5,-2.1,69,13C71.6,28,72.5,45.8,64.7,57.5C56.8,69.3,40.2,74.9,25.7,72.3C11.1,69.7,-1.5,58.8,-16.5,55C-31.5,51.1,-48.8,54.3,-60.7,48.3C-72.5,42.3,-78.7,27.3,-82.1,11.1C-85.5,-5.1,-86.1,-22.3,-77.6,-33.2C-69.2,-44.1,-51.6,-48.6,-37.2,-57.7C-22.7,-66.7,-11.4,-80.4,1.7,-83C14.8,-85.7,29.5,-77.3,39.2,-66Z" transform="translate(100 100)" />
</svg>
