<?xml version="1.0" standalone="no"?>
<svg viewBox="0 0 200 200" xmlns="http://www.w3.org/2000/svg">
  <path fill="#FF0066" d="M32.4,-53.8C43.7,-43.1,55.8,-37.1,63.9,-27C71.9,-16.9,75.9,-2.7,73.3,10C70.7,22.8,61.5,34,51.2,42.3C40.9,50.6,29.4,56,16.6,62.4C3.8,68.7,-10.3,76.1,-23.1,74.3C-35.9,72.5,-47.2,61.6,-56.6,49.7C-66,37.7,-73.5,24.7,-73.5,11.7C-73.6,-1.2,-66.4,-14.1,-60.8,-28.4C-55.3,-42.8,-51.5,-58.6,-41.7,-69.9C-31.8,-81.3,-15.9,-88.2,-2.7,-84C10.5,-79.8,21,-64.5,32.4,-53.8Z" transform="translate(100 100)" />
</svg>
